<mxfile host="Electron" modified="2024-04-08T11:56:28.419Z" agent="Mozilla/5.0 (Windows NT 10.0; Win64; x64) AppleWebKit/537.36 (KHTML, like Gecko) draw.io/24.1.0 Chrome/120.0.6099.109 Electron/28.1.0 Safari/537.36" etag="hL7EtaPl8XtHjDVvu8KD" version="24.1.0" type="device">
  <diagram name="Страница — 1" id="GieKrZ_5f-SgAQIZc8JG">
    <mxGraphModel dx="2747" dy="2331" grid="1" gridSize="10" guides="1" tooltips="1" connect="1" arrows="1" fold="1" page="1" pageScale="1" pageWidth="827" pageHeight="1169" math="0" shadow="0">
      <root>
        <mxCell id="0" />
        <mxCell id="1" parent="0" />
        <mxCell id="zIdGuqCOg5LwLwfeNAEb-50" value="" style="rounded=0;whiteSpace=wrap;html=1;" vertex="1" parent="1">
          <mxGeometry x="-200" y="280" width="500" height="90" as="geometry" />
        </mxCell>
        <mxCell id="zIdGuqCOg5LwLwfeNAEb-47" value="" style="rounded=0;whiteSpace=wrap;html=1;" vertex="1" parent="1">
          <mxGeometry x="430" y="280" width="560" height="90" as="geometry" />
        </mxCell>
        <mxCell id="zIdGuqCOg5LwLwfeNAEb-21" value="" style="rounded=0;whiteSpace=wrap;html=1;" vertex="1" parent="1">
          <mxGeometry x="-110" y="47.5" width="1060" height="95" as="geometry" />
        </mxCell>
        <mxCell id="zIdGuqCOg5LwLwfeNAEb-1" value="" style="sketch=0;points=[[0.5,0,0],[1,0.5,0],[0.5,1,0],[0,0.5,0],[0.145,0.145,0],[0.8555,0.145,0],[0.855,0.8555,0],[0.145,0.855,0]];verticalLabelPosition=bottom;html=1;verticalAlign=top;aspect=fixed;align=center;pointerEvents=1;shape=mxgraph.cisco19.rect;prIcon=router;fillColor=#FAFAFA;strokeColor=#005073;" vertex="1" parent="1">
          <mxGeometry x="360" y="70" width="50" height="50" as="geometry" />
        </mxCell>
        <mxCell id="zIdGuqCOg5LwLwfeNAEb-2" value="" style="sketch=0;points=[[0.5,0,0],[1,0.5,0],[0.5,1,0],[0,0.5,0],[0.145,0.145,0],[0.8555,0.145,0],[0.855,0.8555,0],[0.145,0.855,0]];verticalLabelPosition=bottom;html=1;verticalAlign=top;aspect=fixed;align=center;pointerEvents=1;shape=mxgraph.cisco19.rect;prIcon=router;fillColor=#FAFAFA;strokeColor=#005073;" vertex="1" parent="1">
          <mxGeometry x="580" y="70" width="50" height="50" as="geometry" />
        </mxCell>
        <mxCell id="zIdGuqCOg5LwLwfeNAEb-3" value="" style="sketch=0;points=[[0.5,0,0],[1,0.5,0],[0.5,1,0],[0,0.5,0],[0.145,0.145,0],[0.8555,0.145,0],[0.855,0.8555,0],[0.145,0.855,0]];verticalLabelPosition=bottom;html=1;verticalAlign=top;aspect=fixed;align=center;pointerEvents=1;shape=mxgraph.cisco19.rect;prIcon=router;fillColor=#FAFAFA;strokeColor=#005073;" vertex="1" parent="1">
          <mxGeometry x="140" y="70" width="50" height="50" as="geometry" />
        </mxCell>
        <mxCell id="zIdGuqCOg5LwLwfeNAEb-4" value="" style="sketch=0;points=[[0.5,0,0],[1,0.5,0],[0.5,1,0],[0,0.5,0],[0.145,0.145,0],[0.8555,0.145,0],[0.855,0.8555,0],[0.145,0.855,0]];verticalLabelPosition=bottom;html=1;verticalAlign=top;aspect=fixed;align=center;pointerEvents=1;shape=mxgraph.cisco19.rect;prIcon=router;fillColor=#FAFAFA;strokeColor=#005073;" vertex="1" parent="1">
          <mxGeometry x="140" y="300" width="50" height="50" as="geometry" />
        </mxCell>
        <mxCell id="zIdGuqCOg5LwLwfeNAEb-5" value="" style="sketch=0;points=[[0.5,0,0],[1,0.5,0],[0.5,1,0],[0,0.5,0],[0.145,0.145,0],[0.8555,0.145,0],[0.855,0.8555,0],[0.145,0.855,0]];verticalLabelPosition=bottom;html=1;verticalAlign=top;aspect=fixed;align=center;pointerEvents=1;shape=mxgraph.cisco19.rect;prIcon=router;fillColor=#FAFAFA;strokeColor=#005073;" vertex="1" parent="1">
          <mxGeometry x="580" y="300" width="50" height="50" as="geometry" />
        </mxCell>
        <mxCell id="zIdGuqCOg5LwLwfeNAEb-6" value="" style="endArrow=none;html=1;rounded=0;entryX=0.5;entryY=1;entryDx=0;entryDy=0;entryPerimeter=0;exitX=0.5;exitY=0;exitDx=0;exitDy=0;exitPerimeter=0;" edge="1" parent="1" source="zIdGuqCOg5LwLwfeNAEb-4" target="zIdGuqCOg5LwLwfeNAEb-3">
          <mxGeometry width="50" height="50" relative="1" as="geometry">
            <mxPoint x="390" y="290" as="sourcePoint" />
            <mxPoint x="440" y="240" as="targetPoint" />
          </mxGeometry>
        </mxCell>
        <mxCell id="zIdGuqCOg5LwLwfeNAEb-7" value="" style="endArrow=none;html=1;rounded=0;" edge="1" parent="1" source="zIdGuqCOg5LwLwfeNAEb-3" target="zIdGuqCOg5LwLwfeNAEb-1">
          <mxGeometry width="50" height="50" relative="1" as="geometry">
            <mxPoint x="260" y="180" as="sourcePoint" />
            <mxPoint x="310" y="130" as="targetPoint" />
          </mxGeometry>
        </mxCell>
        <mxCell id="zIdGuqCOg5LwLwfeNAEb-9" value="" style="endArrow=none;html=1;rounded=0;entryX=0.5;entryY=1;entryDx=0;entryDy=0;entryPerimeter=0;exitX=0.5;exitY=0;exitDx=0;exitDy=0;exitPerimeter=0;" edge="1" parent="1" source="zIdGuqCOg5LwLwfeNAEb-5" target="zIdGuqCOg5LwLwfeNAEb-2">
          <mxGeometry width="50" height="50" relative="1" as="geometry">
            <mxPoint x="390" y="290" as="sourcePoint" />
            <mxPoint x="440" y="240" as="targetPoint" />
          </mxGeometry>
        </mxCell>
        <mxCell id="zIdGuqCOg5LwLwfeNAEb-23" value="" style="endArrow=none;html=1;rounded=0;exitX=1;exitY=0.5;exitDx=0;exitDy=0;exitPerimeter=0;" edge="1" parent="1" source="zIdGuqCOg5LwLwfeNAEb-1" target="zIdGuqCOg5LwLwfeNAEb-2">
          <mxGeometry width="50" height="50" relative="1" as="geometry">
            <mxPoint x="390" y="30" as="sourcePoint" />
            <mxPoint x="440" y="-20" as="targetPoint" />
          </mxGeometry>
        </mxCell>
        <mxCell id="zIdGuqCOg5LwLwfeNAEb-24" value="&lt;font style=&quot;font-size: 20px;&quot;&gt;AS A&lt;/font&gt;" style="text;html=1;align=center;verticalAlign=middle;whiteSpace=wrap;rounded=0;" vertex="1" parent="1">
          <mxGeometry x="280" y="-40" width="252" height="140" as="geometry" />
        </mxCell>
        <mxCell id="zIdGuqCOg5LwLwfeNAEb-25" value="" style="sketch=0;points=[[0.5,0,0],[1,0.5,0],[0.5,1,0],[0,0.5,0],[0.145,0.145,0],[0.8555,0.145,0],[0.855,0.8555,0],[0.145,0.855,0]];verticalLabelPosition=bottom;html=1;verticalAlign=top;aspect=fixed;align=center;pointerEvents=1;shape=mxgraph.cisco19.rect;prIcon=router;fillColor=#FAFAFA;strokeColor=#005073;" vertex="1" parent="1">
          <mxGeometry x="810" y="70" width="50" height="50" as="geometry" />
        </mxCell>
        <mxCell id="zIdGuqCOg5LwLwfeNAEb-26" value="" style="sketch=0;points=[[0.5,0,0],[1,0.5,0],[0.5,1,0],[0,0.5,0],[0.145,0.145,0],[0.8555,0.145,0],[0.855,0.8555,0],[0.145,0.855,0]];verticalLabelPosition=bottom;html=1;verticalAlign=top;aspect=fixed;align=center;pointerEvents=1;shape=mxgraph.cisco19.rect;prIcon=router;fillColor=#FAFAFA;strokeColor=#005073;" vertex="1" parent="1">
          <mxGeometry x="-70" y="70" width="50" height="50" as="geometry" />
        </mxCell>
        <mxCell id="zIdGuqCOg5LwLwfeNAEb-28" value="" style="endArrow=none;html=1;rounded=0;exitX=1;exitY=0.5;exitDx=0;exitDy=0;exitPerimeter=0;" edge="1" parent="1" source="zIdGuqCOg5LwLwfeNAEb-26">
          <mxGeometry width="50" height="50" relative="1" as="geometry">
            <mxPoint x="-30" y="94.41" as="sourcePoint" />
            <mxPoint x="140" y="94.41" as="targetPoint" />
          </mxGeometry>
        </mxCell>
        <mxCell id="zIdGuqCOg5LwLwfeNAEb-30" value="" style="endArrow=none;html=1;rounded=0;exitX=0;exitY=0.5;exitDx=0;exitDy=0;exitPerimeter=0;entryX=1.046;entryY=0.884;entryDx=0;entryDy=0;entryPerimeter=0;" edge="1" parent="1" source="zIdGuqCOg5LwLwfeNAEb-25">
          <mxGeometry width="50" height="50" relative="1" as="geometry">
            <mxPoint x="797.6999999999996" y="79.99999999999989" as="sourcePoint" />
            <mxPoint x="629.9999999999998" y="99.20000000000005" as="targetPoint" />
          </mxGeometry>
        </mxCell>
        <mxCell id="zIdGuqCOg5LwLwfeNAEb-31" value="" style="sketch=0;points=[[0.5,0,0],[1,0.5,0],[0.5,1,0],[0,0.5,0],[0.145,0.145,0],[0.8555,0.145,0],[0.855,0.8555,0],[0.145,0.855,0]];verticalLabelPosition=bottom;html=1;verticalAlign=top;aspect=fixed;align=center;pointerEvents=1;shape=mxgraph.cisco19.rect;prIcon=router;fillColor=#FAFAFA;strokeColor=#005073;" vertex="1" parent="1">
          <mxGeometry x="810" y="300" width="50" height="50" as="geometry" />
        </mxCell>
        <mxCell id="zIdGuqCOg5LwLwfeNAEb-32" value="" style="endArrow=none;html=1;rounded=0;entryX=0.5;entryY=1;entryDx=0;entryDy=0;entryPerimeter=0;exitX=0.5;exitY=0;exitDx=0;exitDy=0;exitPerimeter=0;" edge="1" parent="1" source="zIdGuqCOg5LwLwfeNAEb-31">
          <mxGeometry width="50" height="50" relative="1" as="geometry">
            <mxPoint x="620" y="290" as="sourcePoint" />
            <mxPoint x="834.9999999999995" y="69.99999999999989" as="targetPoint" />
          </mxGeometry>
        </mxCell>
        <mxCell id="zIdGuqCOg5LwLwfeNAEb-33" value="" style="sketch=0;points=[[0.5,0,0],[1,0.5,0],[0.5,1,0],[0,0.5,0],[0.145,0.145,0],[0.8555,0.145,0],[0.855,0.8555,0],[0.145,0.855,0]];verticalLabelPosition=bottom;html=1;verticalAlign=top;aspect=fixed;align=center;pointerEvents=1;shape=mxgraph.cisco19.rect;prIcon=router;fillColor=#FAFAFA;strokeColor=#005073;" vertex="1" parent="1">
          <mxGeometry x="-70" y="300" width="50" height="50" as="geometry" />
        </mxCell>
        <mxCell id="zIdGuqCOg5LwLwfeNAEb-34" value="" style="endArrow=none;html=1;rounded=0;entryX=0.5;entryY=1;entryDx=0;entryDy=0;entryPerimeter=0;exitX=0.5;exitY=0;exitDx=0;exitDy=0;exitPerimeter=0;" edge="1" parent="1" source="zIdGuqCOg5LwLwfeNAEb-33" target="zIdGuqCOg5LwLwfeNAEb-26">
          <mxGeometry width="50" height="50" relative="1" as="geometry">
            <mxPoint x="180" y="290" as="sourcePoint" />
            <mxPoint x="-265" y="110" as="targetPoint" />
          </mxGeometry>
        </mxCell>
        <mxCell id="zIdGuqCOg5LwLwfeNAEb-52" value="&lt;font style=&quot;font-size: 20px;&quot;&gt;AS B&lt;/font&gt;" style="text;html=1;align=center;verticalAlign=middle;whiteSpace=wrap;rounded=0;" vertex="1" parent="1">
          <mxGeometry x="-240" y="340" width="120" height="100" as="geometry" />
        </mxCell>
        <mxCell id="zIdGuqCOg5LwLwfeNAEb-53" value="&lt;font style=&quot;font-size: 20px;&quot;&gt;AS C&lt;/font&gt;" style="text;html=1;align=center;verticalAlign=middle;whiteSpace=wrap;rounded=0;" vertex="1" parent="1">
          <mxGeometry x="780" y="330" width="252" height="140" as="geometry" />
        </mxCell>
        <mxCell id="zIdGuqCOg5LwLwfeNAEb-54" value="" style="ellipse;shape=cloud;whiteSpace=wrap;html=1;" vertex="1" parent="1">
          <mxGeometry x="-160" y="-130" width="120" height="80" as="geometry" />
        </mxCell>
        <mxCell id="zIdGuqCOg5LwLwfeNAEb-55" value="" style="endArrow=none;html=1;rounded=0;" edge="1" parent="1">
          <mxGeometry width="50" height="50" relative="1" as="geometry">
            <mxPoint x="130" y="130" as="sourcePoint" />
            <mxPoint x="180" y="80" as="targetPoint" />
          </mxGeometry>
        </mxCell>
        <mxCell id="zIdGuqCOg5LwLwfeNAEb-56" value="" style="endArrow=none;html=1;rounded=0;entryX=0.714;entryY=0.966;entryDx=0;entryDy=0;entryPerimeter=0;exitX=0.5;exitY=0;exitDx=0;exitDy=0;exitPerimeter=0;" edge="1" parent="1" source="zIdGuqCOg5LwLwfeNAEb-26" target="zIdGuqCOg5LwLwfeNAEb-54">
          <mxGeometry width="50" height="50" relative="1" as="geometry">
            <mxPoint x="-490" y="220" as="sourcePoint" />
            <mxPoint x="-440" y="170" as="targetPoint" />
          </mxGeometry>
        </mxCell>
        <mxCell id="zIdGuqCOg5LwLwfeNAEb-61" value="" style="endArrow=none;html=1;rounded=0;entryX=0.5;entryY=1;entryDx=0;entryDy=0;entryPerimeter=0;" edge="1" parent="1" target="zIdGuqCOg5LwLwfeNAEb-73">
          <mxGeometry width="50" height="50" relative="1" as="geometry">
            <mxPoint x="385" y="820" as="sourcePoint" />
            <mxPoint x="385" y="650" as="targetPoint" />
          </mxGeometry>
        </mxCell>
        <mxCell id="zIdGuqCOg5LwLwfeNAEb-62" value="" style="sketch=0;points=[[0.5,0,0],[1,0.5,0],[0.5,1,0],[0,0.5,0],[0.145,0.145,0],[0.8555,0.145,0],[0.855,0.8555,0],[0.145,0.855,0]];verticalLabelPosition=bottom;html=1;verticalAlign=top;aspect=fixed;align=center;pointerEvents=1;shape=mxgraph.cisco19.rect;prIcon=router;fillColor=#FAFAFA;strokeColor=#005073;" vertex="1" parent="1">
          <mxGeometry x="810" y="620" width="50" height="50" as="geometry" />
        </mxCell>
        <mxCell id="zIdGuqCOg5LwLwfeNAEb-63" value="" style="rounded=1;whiteSpace=wrap;html=1;" vertex="1" parent="1">
          <mxGeometry x="275" y="820" width="220" height="120" as="geometry" />
        </mxCell>
        <mxCell id="zIdGuqCOg5LwLwfeNAEb-64" value="" style="endArrow=none;html=1;rounded=0;entryX=0.5;entryY=1;entryDx=0;entryDy=0;entryPerimeter=0;exitX=0.5;exitY=0;exitDx=0;exitDy=0;exitPerimeter=0;" edge="1" parent="1" source="zIdGuqCOg5LwLwfeNAEb-62" target="zIdGuqCOg5LwLwfeNAEb-31">
          <mxGeometry width="50" height="50" relative="1" as="geometry">
            <mxPoint x="540" y="860" as="sourcePoint" />
            <mxPoint x="590" y="810" as="targetPoint" />
          </mxGeometry>
        </mxCell>
        <mxCell id="zIdGuqCOg5LwLwfeNAEb-65" value="" style="rounded=1;whiteSpace=wrap;html=1;" vertex="1" parent="1">
          <mxGeometry x="725" y="810" width="220" height="120" as="geometry" />
        </mxCell>
        <mxCell id="zIdGuqCOg5LwLwfeNAEb-66" value="" style="endArrow=none;html=1;rounded=0;entryX=0.5;entryY=1;entryDx=0;entryDy=0;entryPerimeter=0;exitX=0.5;exitY=0;exitDx=0;exitDy=0;" edge="1" parent="1" source="zIdGuqCOg5LwLwfeNAEb-65">
          <mxGeometry width="50" height="50" relative="1" as="geometry">
            <mxPoint x="808" y="820" as="sourcePoint" />
            <mxPoint x="833.89" y="630" as="targetPoint" />
          </mxGeometry>
        </mxCell>
        <mxCell id="zIdGuqCOg5LwLwfeNAEb-67" value="" style="sketch=0;points=[[0.5,0,0],[1,0.5,0],[0.5,1,0],[0,0.5,0],[0.145,0.145,0],[0.8555,0.145,0],[0.855,0.8555,0],[0.145,0.855,0]];verticalLabelPosition=bottom;html=1;verticalAlign=top;aspect=fixed;align=center;pointerEvents=1;shape=mxgraph.cisco19.rect;prIcon=router;fillColor=#FAFAFA;strokeColor=#005073;" vertex="1" parent="1">
          <mxGeometry x="140" y="520" width="50" height="50" as="geometry" />
        </mxCell>
        <mxCell id="zIdGuqCOg5LwLwfeNAEb-68" value="" style="sketch=0;points=[[0.5,0,0],[1,0.5,0],[0.5,1,0],[0,0.5,0],[0.145,0.145,0],[0.8555,0.145,0],[0.855,0.8555,0],[0.145,0.855,0]];verticalLabelPosition=bottom;html=1;verticalAlign=top;aspect=fixed;align=center;pointerEvents=1;shape=mxgraph.cisco19.rect;prIcon=router;fillColor=#FAFAFA;strokeColor=#005073;" vertex="1" parent="1">
          <mxGeometry x="580" y="520" width="50" height="50" as="geometry" />
        </mxCell>
        <mxCell id="zIdGuqCOg5LwLwfeNAEb-69" value="" style="endArrow=none;html=1;rounded=0;entryX=0.5;entryY=1;entryDx=0;entryDy=0;entryPerimeter=0;exitX=0.5;exitY=0;exitDx=0;exitDy=0;exitPerimeter=0;" edge="1" parent="1" source="zIdGuqCOg5LwLwfeNAEb-67">
          <mxGeometry width="50" height="50" relative="1" as="geometry">
            <mxPoint x="390" y="510" as="sourcePoint" />
            <mxPoint x="165" y="340" as="targetPoint" />
          </mxGeometry>
        </mxCell>
        <mxCell id="zIdGuqCOg5LwLwfeNAEb-70" value="" style="endArrow=none;html=1;rounded=0;entryX=0.5;entryY=1;entryDx=0;entryDy=0;entryPerimeter=0;exitX=0.5;exitY=0;exitDx=0;exitDy=0;exitPerimeter=0;" edge="1" parent="1" source="zIdGuqCOg5LwLwfeNAEb-68">
          <mxGeometry width="50" height="50" relative="1" as="geometry">
            <mxPoint x="390" y="510" as="sourcePoint" />
            <mxPoint x="605" y="340" as="targetPoint" />
          </mxGeometry>
        </mxCell>
        <mxCell id="zIdGuqCOg5LwLwfeNAEb-71" value="" style="endArrow=none;html=1;rounded=0;exitX=0.855;exitY=0.8555;exitDx=0;exitDy=0;exitPerimeter=0;entryX=0.145;entryY=0.145;entryDx=0;entryDy=0;entryPerimeter=0;" edge="1" parent="1" source="zIdGuqCOg5LwLwfeNAEb-67">
          <mxGeometry width="50" height="50" relative="1" as="geometry">
            <mxPoint x="380" y="510" as="sourcePoint" />
            <mxPoint x="367.25" y="607.25" as="targetPoint" />
          </mxGeometry>
        </mxCell>
        <mxCell id="zIdGuqCOg5LwLwfeNAEb-72" value="" style="endArrow=none;html=1;rounded=0;entryX=0;entryY=0.5;entryDx=0;entryDy=0;entryPerimeter=0;exitX=0.8555;exitY=0.145;exitDx=0;exitDy=0;exitPerimeter=0;" edge="1" parent="1" target="zIdGuqCOg5LwLwfeNAEb-68">
          <mxGeometry width="50" height="50" relative="1" as="geometry">
            <mxPoint x="402.7750000000001" y="607.25" as="sourcePoint" />
            <mxPoint x="430" y="460" as="targetPoint" />
          </mxGeometry>
        </mxCell>
        <mxCell id="zIdGuqCOg5LwLwfeNAEb-73" value="" style="sketch=0;points=[[0.015,0.015,0],[0.985,0.015,0],[0.985,0.985,0],[0.015,0.985,0],[0.25,0,0],[0.5,0,0],[0.75,0,0],[1,0.25,0],[1,0.5,0],[1,0.75,0],[0.75,1,0],[0.5,1,0],[0.25,1,0],[0,0.75,0],[0,0.5,0],[0,0.25,0]];verticalLabelPosition=bottom;html=1;verticalAlign=top;aspect=fixed;align=center;pointerEvents=1;shape=mxgraph.cisco19.rect;prIcon=l2_switch;fillColor=#FAFAFA;strokeColor=#005073;" vertex="1" parent="1">
          <mxGeometry x="370" y="585" width="50" height="50" as="geometry" />
        </mxCell>
      </root>
    </mxGraphModel>
  </diagram>
</mxfile>
